<svg xmlns="http://www.w3.org/2000/svg" viewBox="0 0 128 128" fill="none">
  <rect width="128" height="128" rx="30" fill="#FAF6EE" />
  <g filter="url(#shadow)">
    <path
      d="M65.32 31.72c15.76 0 28.39 5.01 36.54 14.49 7.56 8.8 10.08 20.24 7.19 31.44-4.75 18.38-21.2 30.85-40.26 30.85-11.42 0-21.65-4.08-29.27-11.48-15.45-15.03-15.65-39.34-.38-54.66 7.46-7.5 17.24-11.65 26.18-11.65Z"
      fill="url(#fruit)"
    />
    <path
      d="M63.84 31.12c3.1-10.31 10.42-17.67 21.23-21.12-.35 10.12-6.5 17.82-18.94 23.12l-2.29-2Z"
      fill="url(#leaf)"
    />
    <path
      d="M43.82 73.54c8.01-10.98 18.58-16.35 31.41-16.35 7.3 0 14.22 1.83 20.55 5.57"
      stroke="#F6F1E8"
      stroke-width="4.6"
      stroke-linecap="round"
    />
    <circle cx="97.3" cy="61.99" r="8.19" fill="#D88947" />
    <path
      d="M65.32 31.72c15.76 0 28.39 5.01 36.54 14.49 7.56 8.8 10.08 20.24 7.19 31.44-4.75 18.38-21.2 30.85-40.26 30.85-11.42 0-21.65-4.08-29.27-11.48-15.45-15.03-15.65-39.34-.38-54.66 7.46-7.5 17.24-11.65 26.18-11.65Z"
      stroke="#204432"
      stroke-opacity=".12"
      stroke-width="2.4"
    />
  </g>
  <defs>
    <linearGradient id="fruit" x1="40" y1="28" x2="101" y2="97" gradientUnits="userSpaceOnUse">
      <stop stop-color="#4E8C60" />
      <stop offset="1" stop-color="#27513C" />
    </linearGradient>
    <linearGradient id="leaf" x1="62" y1="11" x2="88" y2="38" gradientUnits="userSpaceOnUse">
      <stop stop-color="#B7D787" />
      <stop offset="1" stop-color="#6D9D5D" />
    </linearGradient>
    <filter id="shadow" x="17" y="10" width="93" height="105" filterUnits="userSpaceOnUse" color-interpolation-filters="sRGB">
      <feFlood flood-opacity="0" result="BackgroundImageFix" />
      <feColorMatrix in="SourceAlpha" values="0 0 0 0 0 0 0 0 0 0 0 0 0 0 0 0 0 0 127 0" result="hardAlpha" />
      <feOffset dy="6" />
      <feGaussianBlur stdDeviation="4" />
      <feComposite in2="hardAlpha" operator="out" />
      <feColorMatrix values="0 0 0 0 0.133333 0 0 0 0 0.298039 0 0 0 0 0.203922 0 0 0 0.12 0" />
      <feBlend in2="BackgroundImageFix" result="effect1_dropShadow_1_2" />
      <feBlend in="SourceGraphic" in2="effect1_dropShadow_1_2" result="shape" />
    </filter>
  </defs>
</svg>
