<svg xmlns="http://www.w3.org/2000/svg" viewBox="0 0 128 128" fill="none">
  <rect width="128" height="128" rx="30" fill="#FAF6EE" />
  <g filter="url(#shadow)">
    <path
      d="M64.27 31.14c15.6 0 28.14 5.05 36.2 14.45 7.95 9.24 10.61 20.55 7.78 31.42-4.62 18.52-21.09 31.14-40.31 31.14-11.7 0-21.89-4.1-29.62-11.67-15.47-15.08-15.63-39.5-.31-54.88 7.67-7.69 17.38-12.01 26.26-12.01Z"
      fill="#2D5B45"
    />
    <path
      d="M63.76 30.42c4.06-10.01 11.47-16.86 21.73-20.52-.35 9.91-6.43 17.39-18.59 22.68l-3.14-2.16Z"
      fill="#8DB171"
    />
    <path
      d="M44.57 73.81c7.92-10.62 18.2-15.87 30.67-15.87 7.18 0 13.99 1.84 20.16 5.42"
      stroke="#F6F1E8"
      stroke-width="4.6"
      stroke-linecap="round"
    />
    <circle cx="96.52" cy="61.45" r="7.81" fill="#D88947" />
    <path
      d="M64.27 31.14c15.6 0 28.14 5.05 36.2 14.45 7.95 9.24 10.61 20.55 7.78 31.42-4.62 18.52-21.09 31.14-40.31 31.14-11.7 0-21.89-4.1-29.62-11.67-15.47-15.08-15.63-39.5-.31-54.88 7.67-7.69 17.38-12.01 26.26-12.01Z"
      stroke="#204432"
      stroke-opacity=".12"
      stroke-width="2.4"
    />
  </g>
  <defs>
    <filter id="shadow" x="17" y="10" width="93" height="105" filterUnits="userSpaceOnUse" color-interpolation-filters="sRGB">
      <feFlood flood-opacity="0" result="BackgroundImageFix" />
      <feColorMatrix in="SourceAlpha" values="0 0 0 0 0 0 0 0 0 0 0 0 0 0 0 0 0 0 127 0" result="hardAlpha" />
      <feOffset dy="6" />
      <feGaussianBlur stdDeviation="4" />
      <feComposite in2="hardAlpha" operator="out" />
      <feColorMatrix values="0 0 0 0 0.133333 0 0 0 0 0.298039 0 0 0 0 0.203922 0 0 0 0.12 0" />
      <feBlend in2="BackgroundImageFix" result="effect1_dropShadow_1_2" />
      <feBlend in="SourceGraphic" in2="effect1_dropShadow_1_2" result="shape" />
    </filter>
  </defs>
</svg>
