<svg xmlns="http://www.w3.org/2000/svg" viewBox="0 0 128 128" fill="none">
  <rect width="128" height="128" rx="30" fill="#FAF6EE" />
  <g filter="url(#shadow)">
    <path
      d="M66.76 31.22c18.92 0 34.99 15.02 34.99 36.67 0 22.87-16.92 38.51-39.53 38.51-21 0-36.37-14.85-36.37-36.87 0-21.12 15.95-38.31 36.57-38.31 1.86 0 2.91 0 4.34 0Z"
      fill="url(#fruit)"
    />
    <path
      d="M62.29 32.51c8.95-6.05 15.47-15.02 16.84-21.89 7.28 3.7 10.67 8.98 10.67 15.16-4.66 2.95-12.59 5.89-24.01 6.62l-3.5.11Z"
      fill="url(#leaf)"
    />
    <path
      d="M53.74 25.92c-6-4.32-11.68-6.19-17.63-6.08 1.94 6.63 7.09 12.02 14.72 16.48l2.91-10.4Z"
      fill="#7CAE67"
    />
    <circle cx="86.1" cy="71.27" r="14.12" fill="url(#accent)" />
    <path
      d="M66.76 31.22c18.92 0 34.99 15.02 34.99 36.67 0 22.87-16.92 38.51-39.53 38.51-21 0-36.37-14.85-36.37-36.87 0-21.12 15.95-38.31 36.57-38.31 1.86 0 2.91 0 4.34 0Z"
      stroke="#204432"
      stroke-opacity=".12"
      stroke-width="2.4"
    />
  </g>
  <defs>
    <linearGradient id="fruit" x1="29" y1="27" x2="97" y2="99" gradientUnits="userSpaceOnUse">
      <stop stop-color="#5C9B67" />
      <stop offset="1" stop-color="#224C34" />
    </linearGradient>
    <linearGradient id="leaf" x1="61" y1="8" x2="81" y2="34" gradientUnits="userSpaceOnUse">
      <stop stop-color="#B9D989" />
      <stop offset="1" stop-color="#64945A" />
    </linearGradient>
    <linearGradient id="accent" x1="78" y1="58" x2="98" y2="83" gradientUnits="userSpaceOnUse">
      <stop stop-color="#F3C58C" />
      <stop offset="1" stop-color="#D6783A" />
    </linearGradient>
    <filter id="shadow" x="17" y="10" width="93" height="105" filterUnits="userSpaceOnUse" color-interpolation-filters="sRGB">
      <feFlood flood-opacity="0" result="BackgroundImageFix" />
      <feColorMatrix in="SourceAlpha" values="0 0 0 0 0 0 0 0 0 0 0 0 0 0 0 0 0 0 127 0" result="hardAlpha" />
      <feOffset dy="6" />
      <feGaussianBlur stdDeviation="4" />
      <feComposite in2="hardAlpha" operator="out" />
      <feColorMatrix values="0 0 0 0 0.133333 0 0 0 0 0.298039 0 0 0 0 0.203922 0 0 0 0.12 0" />
      <feBlend in2="BackgroundImageFix" result="effect1_dropShadow_1_2" />
      <feBlend in="SourceGraphic" in2="effect1_dropShadow_1_2" result="shape" />
    </filter>
  </defs>
</svg>
